<mxfile host="drawio-plugin" modified="2022-03-25T19:15:14.418Z" agent="5.0 (Windows NT 6.2; Win64; x64) AppleWebKit/537.36 (KHTML, like Gecko) Chrome/89.0.4389.114 Safari/537.36" etag="ZBCZAUAzpecOkO4SG9IJ" version="15.5.4" type="embed"><diagram id="8U_RoUCBmxHiWh7iefL6" name="Page-1"><mxGraphModel dx="899" dy="400" grid="1" gridSize="10" guides="1" tooltips="1" connect="1" arrows="1" fold="1" page="1" pageScale="1" pageWidth="850" pageHeight="1100" math="0" shadow="0"><root><mxCell id="0"/><mxCell id="1" parent="0"/><mxCell id="vdaBYNK_SCn_7a4gaudC-13" value="Bird" style="swimlane;fontStyle=1;align=center;verticalAlign=top;childLayout=stackLayout;horizontal=1;startSize=30;horizontalStack=0;resizeParent=1;resizeParentMax=0;resizeLast=0;collapsible=1;marginBottom=0;" parent="1" vertex="1"><mxGeometry x="310" y="170" width="160" height="134" as="geometry"/></mxCell><mxCell id="vdaBYNK_SCn_7a4gaudC-14" value="+ name: String&#10;+ color: String" style="text;strokeColor=none;fillColor=none;align=left;verticalAlign=top;spacingLeft=4;spacingRight=4;overflow=hidden;rotatable=0;points=[[0,0.5],[1,0.5]];portConstraint=eastwest;" parent="vdaBYNK_SCn_7a4gaudC-13" vertex="1"><mxGeometry y="30" width="160" height="40" as="geometry"/></mxCell><mxCell id="vdaBYNK_SCn_7a4gaudC-15" value="" style="line;strokeWidth=1;fillColor=none;align=left;verticalAlign=middle;spacingTop=-1;spacingLeft=3;spacingRight=3;rotatable=0;labelPosition=right;points=[];portConstraint=eastwest;" parent="vdaBYNK_SCn_7a4gaudC-13" vertex="1"><mxGeometry y="70" width="160" height="8" as="geometry"/></mxCell><mxCell id="vdaBYNK_SCn_7a4gaudC-16" value="+ speak(): void&#10;+ fly(): void" style="text;strokeColor=none;fillColor=none;align=left;verticalAlign=top;spacingLeft=4;spacingRight=4;overflow=hidden;rotatable=0;points=[[0,0.5],[1,0.5]];portConstraint=eastwest;" parent="vdaBYNK_SCn_7a4gaudC-13" vertex="1"><mxGeometry y="78" width="160" height="56" as="geometry"/></mxCell><mxCell id="2" value="Pigeon" style="swimlane;fontStyle=1;align=center;verticalAlign=top;childLayout=stackLayout;horizontal=1;startSize=26;horizontalStack=0;resizeParent=1;resizeParentMax=0;resizeLast=0;collapsible=1;marginBottom=0;" vertex="1" parent="1"><mxGeometry x="320" y="400" width="210" height="84" as="geometry"/></mxCell><mxCell id="4" value="" style="line;strokeWidth=1;fillColor=none;align=left;verticalAlign=middle;spacingTop=-1;spacingLeft=3;spacingRight=3;rotatable=0;labelPosition=right;points=[];portConstraint=eastwest;" vertex="1" parent="2"><mxGeometry y="26" width="210" height="8" as="geometry"/></mxCell><mxCell id="5" value="+ eatPizza(): void&#10;+ sleep(): void" style="text;strokeColor=none;fillColor=none;align=left;verticalAlign=top;spacingLeft=4;spacingRight=4;overflow=hidden;rotatable=0;points=[[0,0.5],[1,0.5]];portConstraint=eastwest;" vertex="1" parent="2"><mxGeometry y="34" width="210" height="50" as="geometry"/></mxCell><mxCell id="6" value="Extends" style="endArrow=block;endSize=16;endFill=0;html=1;rounded=0;exitX=0.5;exitY=0;exitDx=0;exitDy=0;entryX=0.556;entryY=1.054;entryDx=0;entryDy=0;entryPerimeter=0;" edge="1" parent="1" source="2" target="vdaBYNK_SCn_7a4gaudC-16"><mxGeometry width="160" relative="1" as="geometry"><mxPoint x="340" y="360" as="sourcePoint"/><mxPoint x="450" y="340" as="targetPoint"/></mxGeometry></mxCell></root></mxGraphModel></diagram></mxfile>